<?xml version="1.0" encoding="utf-8"?>
<!-- Generator: Adobe Illustrator 25.4.1, SVG Export Plug-In . SVG Version: 6.00 Build 0)  -->
<svg version="1.1" id="Layer_1" xmlns="http://www.w3.org/2000/svg" xmlns:xlink="http://www.w3.org/1999/xlink" x="0px" y="0px"
	 viewBox="0 0 545 83" style="enable-background:new 0 0 545 83;" xml:space="preserve">
<style type="text/css">
	.st0{fill:#134457;}
	.st1{fill:#777779;}
	.st2{fill:#8ACFB9;}
	.st3{fill:#EF3C3B;}
	.st4{fill:#DAD8DC;}
	.st5{fill:#B3B1B1;}
</style>
<g>
	<path class="st0" d="M111.24,23.11h3.84v35.61h18.11v3.45h-21.94V23.11z"/>
	<path class="st0" d="M149.34,33.55c7.72,0,11.67,5.95,11.67,12.89c0,0.67-0.11,1.94-0.11,1.94h-21.45
		c0.17,7.17,5.05,11.05,10.83,11.05c5.11,0,8.5-3.39,8.5-3.39l1.72,2.89c0,0-4.06,3.89-10.33,3.89c-8.33,0-14.61-6-14.61-14.61
		C135.57,39.05,141.79,33.55,149.34,33.55z M157.17,45.28c-0.22-5.83-3.78-8.56-7.94-8.56c-4.66,0-8.72,2.94-9.61,8.56H157.17z"/>
	<path class="st0" d="M181.67,44.89h1.55v-0.72c0-5.39-2.94-7.22-6.94-7.22c-4.61,0-7.89,2.67-7.89,2.67l-1.78-2.89
		c0,0,3.66-3.17,9.94-3.17c6.72,0,10.44,3.72,10.44,10.72v17.89h-3.61v-3.06c0-1.39,0.11-2.34,0.11-2.34h-0.11
		c0,0-2.33,6.06-9.34,6.06c-4.67,0-9.5-2.72-9.5-8.28C164.56,45.11,176.83,44.89,181.67,44.89z M174.67,59.61
		c5.33,0,8.56-5.55,8.56-10.39V48h-1.61c-4.39,0-13.17,0.17-13.17,6.33C168.44,56.94,170.5,59.61,174.67,59.61z"/>
	<path class="st0" d="M205.05,33.55c6.77,0,9.11,5.28,9.11,5.28h0.11c0,0-0.11-0.94-0.11-2.11V23.11h3.78v39.05h-3.67v-2.95
		c0-1.22,0.11-2,0.11-2h-0.11c0,0-2.28,5.61-9.61,5.61c-7.5,0-12.17-6-12.17-14.67C192.49,39.33,197.71,33.55,205.05,33.55z
		 M205.21,59.44c4.66,0,9.05-3.33,9.05-11.28c0-5.67-2.89-11.22-8.89-11.22c-4.94,0-9,4.17-9,11.22
		C196.38,55.05,199.99,59.44,205.21,59.44z"/>
	<path class="st0" d="M225.54,23.11h3.94v4.72h-3.94V23.11z M225.65,34.22h3.78v27.94h-3.78V34.22z"/>
	<path class="st0" d="M237.14,34.22h3.72v4.17c0,1.22-0.11,2.22-0.11,2.22h0.11c1-2.56,4.56-7.06,11.17-7.06
		c6.89,0,9.33,3.95,9.33,10.83v17.78h-3.78V45.39c0-4.39-0.67-8.28-6.06-8.28c-4.78,0-8.88,3.28-10.16,7.89
		c-0.34,1.17-0.44,2.45-0.44,3.78v13.39h-3.78V34.22z"/>
	<path class="st0" d="M278.35,70.44c5.44,0,9.78-2.55,9.78-8.78v-2.55c0-1.06,0.11-2,0.11-2h-0.11c-1.67,3.11-4.5,4.89-8.83,4.89
		c-7.5,0-12.44-5.94-12.44-14.33c0-8.39,4.61-14.11,12.11-14.11c7.39,0,9.22,4.67,9.22,4.67h0.11c0,0-0.06-0.33-0.06-0.94v-3.05
		h3.67V61.5c0,8.89-6.55,12.33-13.39,12.33c-3.22,0-6.44-0.83-9.17-2.22l1.44-3.11C270.8,68.5,274.24,70.44,278.35,70.44z
		 M288.18,47.66c0-8.16-3.89-10.66-8.83-10.66c-5.44,0-8.61,3.94-8.61,10.61c0,6.67,3.61,11,9.17,11
		C284.3,58.61,288.18,55.89,288.18,47.66z"/>
	<path class="st0" d="M300.06,22.73h12.72c4.28,0,6.22,0.33,7.94,1.11c3.94,1.78,6.44,5.55,6.44,10.78c0,4.72-2.5,9.11-6.66,10.78
		v0.11c0,0,0.55,0.55,1.33,1.94l8.11,14.72h-8l-7.83-14.72h-6.89v14.72h-7.17V22.73z M313.67,41.22c3.83,0,6.22-2.28,6.22-6.22
		c0-3.78-1.61-6.11-7.22-6.11h-5.44v12.33H313.67z"/>
	<path class="st0" d="M346.22,33.17c8.17,0,12.56,5.94,12.56,13.44c0,0.83-0.17,2.72-0.17,2.72h-19.55c0.44,4.94,4.28,7.5,8.5,7.5
		c4.56,0,8.16-3.12,8.16-3.12l2.72,5.06c0,0-4.34,4.06-11.39,4.06c-9.39,0-15.22-6.78-15.22-14.83
		C331.83,39.28,337.77,33.17,346.22,33.17z M351.66,44.5c-0.11-3.84-2.5-5.89-5.61-5.89c-3.61,0-6.11,2.22-6.77,5.89H351.66z"/>
	<path class="st0" d="M364.04,53.72c0,0,3.11,3.12,7.72,3.12c2,0,3.72-0.89,3.72-2.56c0-4.22-13.78-3.67-13.78-12.78
		c0-5.27,4.72-8.33,10.83-8.33c6.39,0,9.5,3.22,9.5,3.22l-2.61,5.22c0,0-2.61-2.45-6.94-2.45c-1.84,0-3.61,0.78-3.61,2.56
		c0,4,13.78,3.5,13.78,12.61c0,4.72-4.11,8.5-10.83,8.5c-7.05,0-11-4.17-11-4.17L364.04,53.72z"/>
	<path class="st0" d="M386.93,33.83h6.44v2.06c0,1.06-0.11,1.94-0.11,1.94h0.11c0,0,2.45-4.67,9.11-4.67
		c7.66,0,12.55,6.05,12.55,14.83c0,9-5.5,14.83-12.94,14.83c-5.61,0-8.11-3.89-8.11-3.89h-0.11c0,0,0.11,1,0.11,2.45v11.89h-7.05
		V33.83z M400.81,56.88c3.89,0,7.11-3.17,7.11-8.78c0-5.39-2.89-8.89-7.05-8.89c-3.67,0-7.11,2.67-7.11,8.94
		C393.76,52.55,396.15,56.88,400.81,56.88z"/>
	<path class="st0" d="M432.91,33.17c8.66,0,15.61,6.17,15.61,14.83c0,8.73-6.95,14.83-15.56,14.83c-8.66,0-15.61-6.11-15.61-14.83
		C417.36,39.33,424.3,33.17,432.91,33.17z M432.97,56.83c4.56,0,8.39-3.56,8.39-8.84c0-5.22-3.84-8.83-8.39-8.83
		c-4.61,0-8.44,3.61-8.44,8.83C424.52,53.27,428.36,56.83,432.97,56.83z"/>
	<path class="st0" d="M452.79,33.83h6.78v3.28c0,1.06-0.11,1.94-0.11,1.94h0.11c1.22-2.38,4.33-5.88,10.05-5.88
		c6.28,0,9.83,3.28,9.83,10.78v18.22h-7V45.39c0-3.44-0.89-5.78-4.5-5.78c-3.77,0-6.55,2.39-7.61,5.78c-0.39,1.17-0.5,2.44-0.5,3.78
		v13h-7.05V33.83z"/>
	<path class="st0" d="M486.28,53.72c0,0,3.11,3.12,7.72,3.12c2,0,3.72-0.89,3.72-2.56c0-4.22-13.78-3.67-13.78-12.78
		c0-5.27,4.72-8.33,10.83-8.33c6.39,0,9.5,3.22,9.5,3.22l-2.61,5.22c0,0-2.61-2.45-6.95-2.45c-1.83,0-3.61,0.78-3.61,2.56
		c0,4,13.78,3.5,13.78,12.61c0,4.72-4.11,8.5-10.83,8.5c-7.06,0-11-4.17-11-4.17L486.28,53.72z"/>
	<path class="st0" d="M521.55,33.17c8.17,0,12.55,5.94,12.55,13.44c0,0.83-0.17,2.72-0.17,2.72h-19.55c0.44,4.94,4.28,7.5,8.5,7.5
		c4.56,0,8.17-3.12,8.17-3.12l2.72,5.06c0,0-4.34,4.06-11.38,4.06c-9.39,0-15.22-6.78-15.22-14.83
		C507.16,39.28,513.11,33.17,521.55,33.17z M526.99,44.5c-0.11-3.84-2.5-5.89-5.61-5.89c-3.61,0-6.11,2.22-6.78,5.89H526.99z"/>
</g>
<g>
	<path class="st1" d="M27.32,44.21c2.09,0,3.78,1.7,3.78,3.78c0,2.09-1.7,3.78-3.78,3.78c-2.09,0-3.78-1.69-3.78-3.78
		C23.54,45.9,25.23,44.21,27.32,44.21z"/>
	<path class="st1" d="M27.32,40.79c2.09,0,3.78-1.69,3.78-3.78c0-2.09-1.7-3.78-3.78-3.78c-2.09,0-3.78,1.69-3.78,3.78
		C23.54,39.1,25.23,40.79,27.32,40.79z"/>
	<path class="st1" d="M55.78,44.21c2.09,0,3.78,1.7,3.78,3.78c0,2.09-1.69,3.78-3.78,3.78c-2.09,0-3.78-1.69-3.78-3.78
		C52,45.9,53.7,44.21,55.78,44.21z"/>
	<path class="st2" d="M55.78,40.79c2.09,0,3.78-1.69,3.78-3.78c0-2.09-1.69-3.78-3.78-3.78c-2.09,0-3.78,1.69-3.78,3.78
		C52,39.1,53.7,40.79,55.78,40.79z"/>
	<path class="st0" d="M39.85,28.81c0,2.09-1.69,3.78-3.78,3.78c-2.09,0-3.78-1.69-3.78-3.78c0-2.09,1.69-3.78,3.78-3.78
		C38.15,25.04,39.85,26.73,39.85,28.81z"/>
	<path class="st1" d="M28.87,27.06c0,2.09-1.69,3.78-3.78,3.78c-2.09,0-3.78-1.7-3.78-3.78s1.69-3.78,3.78-3.78
		C27.18,23.28,28.87,24.97,28.87,27.06z"/>
	<path class="st1" d="M43.26,28.81c0,2.09,1.69,3.78,3.78,3.78c2.09,0,3.78-1.69,3.78-3.78c0-2.09-1.69-3.78-3.78-3.78
		C44.95,25.04,43.26,26.73,43.26,28.81z"/>
	<path class="st1" d="M54.24,27.06c0,2.09,1.69,3.78,3.78,3.78c2.09,0,3.78-1.7,3.78-3.78s-1.69-3.78-3.78-3.78
		C55.93,23.28,54.24,24.97,54.24,27.06z"/>
	<path class="st3" d="M43.26,56.18c0-2.09,1.69-3.78,3.78-3.78c2.09,0,3.78,1.69,3.78,3.78c0,2.09-1.69,3.78-3.78,3.78
		C44.95,59.96,43.26,58.27,43.26,56.18z"/>
	<path class="st1" d="M54.24,57.94c0-2.09,1.69-3.79,3.78-3.79c2.09,0,3.78,1.69,3.78,3.79c0,2.09-1.69,3.78-3.78,3.78
		C55.93,61.72,54.24,60.02,54.24,57.94z"/>
	<path class="st1" d="M39.85,56.18c0-2.09-1.69-3.78-3.78-3.78c-2.09,0-3.78,1.69-3.78,3.78c0,2.09,1.69,3.78,3.78,3.78
		C38.16,59.96,39.85,58.27,39.85,56.18z"/>
	<path class="st1" d="M28.87,57.94c0-2.09-1.69-3.79-3.78-3.79c-2.09,0-3.78,1.69-3.78,3.79c0,2.09,1.69,3.78,3.78,3.78
		C27.18,61.72,28.87,60.02,28.87,57.94z"/>
	<path class="st4" d="M24.53,14.63c0,2.08-1.69,3.78-3.78,3.78c-2.09,0-3.78-1.7-3.78-3.78c0-2.09,1.69-3.78,3.78-3.78
		C22.84,10.84,24.53,12.54,24.53,14.63z"/>
	<path class="st4" d="M66.13,14.63c0,2.08-1.69,3.78-3.78,3.78c-2.09,0-3.78-1.7-3.78-3.78c0-2.09,1.69-3.78,3.78-3.78
		C64.44,10.84,66.13,12.54,66.13,14.63z"/>
	<path class="st5" d="M45.33,18.14c0,2.09-1.69,3.78-3.78,3.78c-2.09,0-3.78-1.69-3.78-3.78c0-2.09,1.69-3.78,3.78-3.78
		C43.64,14.36,45.33,16.05,45.33,18.14z"/>
	<path class="st5" d="M55.73,16.38c0,2.09-1.69,3.78-3.78,3.78c-2.09,0-3.78-1.69-3.78-3.78c0-2.09,1.69-3.78,3.78-3.78
		C54.04,12.6,55.73,14.3,55.73,16.38z"/>
	<path class="st5" d="M34.93,16.38c0,2.09-1.69,3.78-3.78,3.78c-2.09,0-3.78-1.69-3.78-3.78c0-2.09,1.69-3.78,3.78-3.78
		C33.24,12.6,34.93,14.3,34.93,16.38z"/>
	<path class="st4" d="M58.57,70.37c0-2.09,1.69-3.78,3.78-3.78c2.09,0,3.78,1.69,3.78,3.78c0,2.09-1.69,3.78-3.78,3.78
		C60.26,74.16,58.57,72.46,58.57,70.37z"/>
	<circle class="st4" cx="20.75" cy="70.37" r="3.78"/>
	<path class="st5" d="M37.77,66.86c0-2.09,1.69-3.78,3.78-3.78c2.09,0,3.78,1.69,3.78,3.78c0,2.09-1.69,3.78-3.78,3.78
		C39.46,70.64,37.77,68.95,37.77,66.86z"/>
	<path class="st5" d="M27.37,68.62c0-2.09,1.69-3.78,3.78-3.78c2.09,0,3.78,1.69,3.78,3.78c0,2.09-1.69,3.78-3.78,3.78
		C29.06,72.4,27.37,70.7,27.37,68.62z"/>
	<path class="st5" d="M48.17,68.62c0-2.09,1.69-3.78,3.78-3.78c2.09,0,3.78,1.69,3.78,3.78c0,2.09-1.69,3.78-3.78,3.78
		C49.86,72.4,48.17,70.7,48.17,68.62z"/>
	<path class="st4" d="M69.42,25.48c-2.09,0-3.78-1.69-3.78-3.78c0-2.08,1.69-3.78,3.78-3.78c2.09,0,3.78,1.7,3.78,3.78
		C73.21,23.79,71.51,25.48,69.42,25.48z"/>
	<path class="st4" d="M69.42,67.08c-2.09,0-3.78-1.69-3.78-3.78c0-2.09,1.69-3.78,3.78-3.78c2.09,0,3.78,1.69,3.78,3.78
		C73.21,65.39,71.51,67.08,69.42,67.08z"/>
	<path class="st5" d="M65.91,46.28c-2.09,0-3.78-1.69-3.78-3.78c0-2.09,1.69-3.78,3.78-3.78c2.09,0,3.78,1.69,3.78,3.78
		C69.69,44.59,68,46.28,65.91,46.28z"/>
	<path class="st5" d="M67.67,56.68c-2.09,0-3.78-1.7-3.78-3.78s1.69-3.78,3.78-3.78c2.09,0,3.78,1.69,3.78,3.78
		S69.75,56.68,67.67,56.68z"/>
	<path class="st5" d="M67.67,35.88c-2.09,0-3.78-1.69-3.78-3.78s1.69-3.78,3.78-3.78c2.09,0,3.78,1.69,3.78,3.78
		S69.75,35.88,67.67,35.88z"/>
	<path class="st4" d="M13.68,59.51c2.09,0,3.78,1.69,3.78,3.78c0,2.09-1.69,3.78-3.78,3.78c-2.09,0-3.78-1.69-3.78-3.78
		C9.9,61.21,11.59,59.51,13.68,59.51z"/>
	<path class="st4" d="M13.68,17.92c2.09,0,3.78,1.7,3.78,3.78c0,2.09-1.69,3.78-3.78,3.78c-2.09,0-3.78-1.69-3.78-3.78
		C9.9,19.61,11.59,17.92,13.68,17.92z"/>
	<path class="st5" d="M17.19,38.72c2.09,0,3.78,1.69,3.78,3.78c0,2.09-1.69,3.78-3.78,3.78c-2.09,0-3.78-1.69-3.78-3.78
		C13.41,40.41,15.1,38.72,17.19,38.72z"/>
	<path class="st5" d="M15.44,28.32c2.09,0,3.78,1.69,3.78,3.78s-1.69,3.78-3.78,3.78s-3.78-1.69-3.78-3.78S13.35,28.32,15.44,28.32z
		"/>
	<path class="st5" d="M15.44,49.12c2.09,0,3.78,1.69,3.78,3.78s-1.69,3.78-3.78,3.78s-3.78-1.7-3.78-3.78S13.35,49.12,15.44,49.12z"
		/>
</g>
</svg>
